<?xml version="1.0" encoding="UTF-8"?>
<svg xmlns="http://www.w3.org/2000/svg" xmlns:xlink="http://www.w3.org/1999/xlink" width="36px" height="px" viewBox="0 0 36 36" version="1.1">
<g id="surface1">
<path style=" stroke:none;fill-rule:evenodd;fill:rgb(100%,100%,100%);fill-opacity:1;" d="M 4 36 L 32 36 C 34.210938 36 36 34.210938 36 32 L 36 4 C 36 1.789062 34.210938 0 32 0 L 4 0 C 1.789062 0 0 1.789062 0 4 L 0 32 C 0 34.210938 1.789062 36 4 36 Z M 4 36 "/>
<path style=" stroke:none;fill-rule:evenodd;fill:rgb(1.960784%,1.960784%,1.960784%);fill-opacity:1;" d="M 31 31 L 25.65625 31 L 25.65625 21.902344 C 25.65625 19.40625 24.710938 18.011719 22.734375 18.011719 C 20.585938 18.011719 19.464844 19.464844 19.464844 21.902344 L 19.464844 31 L 14.316406 31 L 14.316406 13.667969 L 19.464844 13.667969 L 19.464844 16 C 19.464844 16 21.011719 13.136719 24.691406 13.136719 C 28.367188 13.136719 31 15.382812 31 20.027344 Z M 8.175781 11.398438 C 6.421875 11.398438 5 9.964844 5 8.199219 C 5 6.433594 6.421875 5 8.175781 5 C 9.929688 5 11.347656 6.433594 11.347656 8.199219 C 11.347656 9.964844 9.929688 11.398438 8.175781 11.398438 Z M 5.515625 31 L 10.882812 31 L 10.882812 13.667969 L 5.515625 13.667969 Z M 5.515625 31 "/>
</g>
</svg>
